<svg width="114" height="40" viewBox="0 0 114 40" fill="none" xmlns="http://www.w3.org/2000/svg">
<path fill-rule="evenodd" clip-rule="evenodd" d="M64.6655 14.9056H68.1805V16.6119C68.1805 17.1619 68.1805 17.6241 68.1805 17.6241C69.9794 14.0116 75.924 13.2023 77.256 17.5958H77.313C78.5391 15.1766 81.5395 14.013 84.0947 14.7977C86.4464 15.5201 87.1369 17.9328 87.1369 20.1701V29.6586H83.4777V20.865C83.4777 19.3275 83.0794 17.7994 81.24 17.9212C79.4396 18.04 78.3009 19.6289 77.9178 21.27C77.7742 21.8481 77.7453 22.4843 77.7453 23.1791V29.6586H74.086V20.865C74.086 19.2347 73.617 17.6944 71.6716 17.94C69.9448 18.1581 68.8855 19.7137 68.4972 21.299C68.3529 21.8481 68.3241 22.514 68.3241 23.1791V29.6586H64.6655V14.9056Z" fill="#00D1C1"/>
<path fill-rule="evenodd" clip-rule="evenodd" d="M113.453 26.5353C112.503 26.5353 111.955 26.1303 111.955 24.5102V9.12109L108.325 12.7706V25.0594C108.325 29.2835 110.831 29.8037 112.848 29.8037C113.453 29.8037 114 29.7175 114 29.7175V26.5063C114 26.5063 113.742 26.5353 113.453 26.5353Z" fill="#00D1C1"/>
<path fill-rule="evenodd" clip-rule="evenodd" d="M104.033 17.4743C102.75 15.3797 100.413 14.3356 97.997 14.5972C96.4405 14.766 94.8104 15.5796 94.0131 16.9889C94.0131 16.9889 94.0131 16.5259 94.0131 15.9767V14.9058H90.6713V36.6354L94.3298 32.9526V29.2538C94.3298 28.5017 94.3298 27.9808 94.3298 27.9808C95.558 29.7762 97.9905 30.2892 100.004 29.8501C105.265 28.7039 106.568 21.6143 104.033 17.4743ZM97.8736 26.9099C95.6287 26.9099 94.3695 24.8428 94.2295 22.796C94.1126 21.0854 94.573 19.0574 96.1706 18.1539C97.489 17.4076 99.2367 17.6163 100.304 18.7038C102.638 21.0818 101.793 26.9099 97.8736 26.9099Z" fill="#00D1C1"/>
<path fill-rule="evenodd" clip-rule="evenodd" d="M57.4777 15.041H61.1362V29.6592H57.4777V15.041Z" fill="#00D1C1"/>
<path fill-rule="evenodd" clip-rule="evenodd" d="M54.2082 22.747C53.6424 20.1734 51.2164 18.9461 49.0018 18.0121C47.5406 17.3956 44.6354 16.6268 44.7184 14.5778C44.8006 12.5477 47.1718 12.0231 48.7868 12.3028C49.6981 12.4607 50.6016 12.8295 51.4018 13.3345L53.8358 10.8907C51.6465 8.77937 47.8191 8.24177 45.051 9.2438C42.0643 10.3241 40.0027 13.6874 41.3838 16.7935C42.4006 19.0794 44.9926 20.0423 47.1199 20.9711C48.7536 21.6848 51.6263 22.9411 50.331 25.256C49.4073 26.9065 47.0412 26.7131 45.5323 26.1878C44.6794 25.8907 43.8503 25.4393 43.1251 24.8757L40.6796 27.3311C42.8126 29.496 46.3304 30.4104 49.2479 29.8561C52.5658 29.2258 54.9622 26.1791 54.2082 22.747Z" fill="#00D1C1"/>
<rect opacity="0.01" width="31.7277" height="40" fill="#00D1C1"/>
<path fill-rule="evenodd" clip-rule="evenodd" d="M27.5175 10.123L31.5099 6.12592L30.6424 5.25709C23.6413 -1.75221 12.2495 -1.75252 5.24841 5.25709C-1.461 11.9743 -1.73593 22.7256 4.41416 29.7792L0.421709 33.7763L1.28953 34.6449C8.29065 41.6542 19.6821 41.6545 26.6832 34.6449C33.3927 27.9279 33.6676 17.1766 27.5175 10.123ZM6.9838 6.99444C12.7357 1.23584 21.9213 0.957842 28.0049 6.15982L25.7282 8.43913C20.8866 4.46402 13.7283 4.73866 9.20735 9.26458C4.68671 13.7908 4.41208 20.9574 8.38286 25.8047L6.15016 28.04C0.95424 21.9494 1.23222 12.753 6.9838 6.99444ZM24.9479 32.9075C19.196 38.6661 10.0104 38.9441 3.92683 33.7421L6.20347 31.4628C11.0451 35.4382 18.2034 35.1636 22.7243 30.6377C27.245 26.1115 27.5196 18.9448 23.5488 14.0972L25.7812 11.8622C30.9771 17.9529 30.6998 27.1489 24.9479 32.9075Z" fill="#00D1C1"/>
</svg>
